<svg xmlns="http://www.w3.org/2000/svg" viewBox="0 0 600 340" width="600" height="340">
  <defs>
    <style>
      :root {
        --bg: #f4f5f5;
        --grid-line: rgba(0, 0, 0, 0.05);
        --panel-bg: #e8e8e8;
        --panel-border: #111111;
        --window-bar: #cccccc;
        --text-dark: #111111;
        --text-muted: #666666;
        --accent: #0033cc;
        --accent-alt: #009933;
      }
      .bg { fill: var(--bg); }
      .grid-line { stroke: var(--grid-line); stroke-width: 1; }
      .border { stroke: var(--panel-border); stroke-width: 2; fill: none; }
      .border-thin { stroke: var(--panel-border); stroke-width: 1; fill: none; }
      .panel { fill: var(--panel-bg); stroke: var(--panel-border); stroke-width: 2; }
      .window-bar { fill: var(--window-bar); stroke: var(--panel-border); stroke-width: 2; }
      .fill { fill: var(--panel-border); }
      .text-title { font-family: ui-monospace, SFMono-Regular, Menlo, monospace; font-size: 16px; font-weight: bold; fill: var(--text-dark); }
      .text-sub   { font-family: ui-monospace, SFMono-Regular, Menlo, monospace; font-size: 11px; fill: var(--text-muted); }
      .text-node  { font-family: ui-monospace, SFMono-Regular, Menlo, monospace; font-size: 10px; fill: var(--text-dark); text-anchor: middle; }
      .text-small { font-family: ui-monospace, SFMono-Regular, Menlo, monospace; font-size: 9px; fill: var(--text-muted); text-anchor: middle; }
      .accent { fill: var(--accent); }
      .accent-stroke { stroke: var(--accent); fill: none; stroke-width: 2; }
      
      .signal { stroke: var(--panel-border); stroke-width: 1; stroke-dasharray: 4 4; opacity: 0.5; }
      .signal-active { stroke: var(--accent); stroke-width: 2; stroke-dasharray: 4 4; }
    </style>
    <pattern id="bgGrid" width="20" height="20" patternUnits="userSpaceOnUse">
      <path d="M 20 0 L 0 0 0 20" fill="none" class="grid-line" />
    </pattern>
  </defs>

  <rect width="100%" height="100%" class="bg" />
  <rect width="100%" height="100%" fill="url(#bgGrid)" />

  <rect x="20" y="20" width="560" height="300" class="panel" />

  <rect x="20" y="20" width="560" height="24" class="window-bar" />
  <line x1="20" y1="44" x2="580" y2="44" class="border" />
  <line x1="60" y1="28" x2="540" y2="28" class="border-thin" opacity="0.5" />
  <line x1="60" y1="32" x2="540" y2="32" class="border-thin" opacity="0.5" />
  <line x1="60" y1="36" x2="540" y2="36" class="border-thin" opacity="0.5" />
  <rect x="28" y="26" width="12" height="12" class="bg" stroke="var(--panel-border)" stroke-width="1" />

  <rect x="30" y="54" width="540" height="256" class="bg" stroke="var(--panel-border)" stroke-width="1" />

  <text x="50" y="83" class="text-title">PROJECT 04: XYZ STOCKS</text>
  <text x="50" y="101" class="text-sub">AI-Powered Stock Analysis Platform</text>


  <!-- Top: Market Data Stream -->
  <g transform="translate(60, 120)">
    <rect x="0" y="0" width="450" height="30" class="border" />
    <rect x="5" y="5" width="20" height="20" class="fill" opacity="0.2" />
    <text x="40" y="19" class="text-small" text-anchor="start">MARKET DATA :: NY / LND / TYO [ OK ]</text>
    <path d="M 320 15 L 340 10 L 360 20 L 380 5 L 400 25 L 420 15 L 440 10" class="border-thin" stroke="var(--accent)" />
  </g>

  <!-- Left: AI Engine & Momentum -->
  <g transform="translate(60, 160)">
    <rect x="0" y="0" width="150" height="110" class="border" fill="var(--panel-bg)" />
    <text x="75" y="25" class="text-node">AI ANALYSIS ENGINE</text>
    <line x1="10" y1="40" x2="140" y2="40" class="border-thin" />
    <rect x="15" y="55" width="50" height="40" class="border-thin" />
    <text x="40" y="75" class="text-small">NLP</text>
    <rect x="85" y="55" width="50" height="40" class="border-thin" />
    <text x="110" y="75" class="text-small">MOMENTUM</text>
  </g>
  <path d="M 210 215 L 260 215" class="signal-active" />

  <!-- Center: Portfolio Intelligence -->
  <g transform="translate(260, 160)">
    <rect x="0" y="0" width="120" height="110" class="border" />
    <text x="60" y="25" class="text-node">INTELLIGENCE</text>
    <circle cx="60" cy="65" r="25" class="border-thin" />
    <path d="M 60 40 A 25 25 0 0 1 85 65 L 60 65 Z" class="fill" opacity="0.6" />
    <path d="M 60 65 L 85 65 A 25 25 0 0 1 42 82 L 60 65 Z" class="fill" opacity="0.3" />
  </g>
  <path d="M 380 215 L 430 215" class="signal" />

  <!-- Right: Investor Dashboard -->
  <g transform="translate(430, 160)">
    <rect x="0" y="0" width="80" height="110" class="border" rx="4" />
    <rect x="10" y="20" width="60" height="15" class="border-thin" />
    <rect x="10" y="45" width="60" height="40" class="border-thin" fill="var(--panel-bg)" />
    <line x1="10" y1="95" x2="70" y2="95" class="border-thin" />
    <text x="40" y="130" class="text-small">DASHBOARD</text>
  </g>

</svg>